<svg width="365" height="25" viewBox="0 0 365 25" fill="none" xmlns="http://www.w3.org/2000/svg">
<g clip-path="url(#clip0_7_78)">
<path d="M71.3086 23.8801H62.039V23.4714H64.3916L59.0348 12.0528H54.8089V23.4714H57.1677V23.8929H48.7148V23.4714H50.7482V1.49637H48.3893V0.985474H60.5831C63.1813 0.985474 64.9689 1.49637 66.0255 2.51178C67.0822 3.52719 67.6476 4.95771 67.6476 6.81609C67.6476 9.18541 66.7566 10.7053 64.889 11.5483C63.9515 11.8977 62.961 12.0685 61.9652 12.0528H59.852C60.3231 12.914 60.9922 13.6403 61.7991 14.1666C62.7407 14.707 63.7957 14.9965 64.8709 15.0097L68.8698 23.4714H71.3272L71.3086 23.8801ZM54.8089 11.5483H58.3038C59.6065 11.5483 61.4736 11.2098 62.3708 10.5329C63.2674 9.85596 63.8329 8.42546 63.8329 6.47765C63.8329 4.52983 63.4274 3.09932 62.6963 2.39683C61.9652 1.69435 60.2575 1.32394 58.9672 1.32394H54.8089V11.5483Z" fill="white"/>
<path d="M46.9688 23.8803H38.0861V23.4716H40.445L37.4718 16.1913H28.3618L25.1122 23.4716H27.7107V23.8931H22.3479V23.4716H24.7007L34.9409 0.48114L44.9355 23.3758H47.0487V23.8803H46.9688ZM28.6014 15.6867H37.2998L32.9998 5.89027L28.6014 15.6867Z" fill="white"/>
<path d="M180.154 23.8803H171.302V23.4716H173.655L170.651 16.1913H161.559L158.298 23.4716H160.896V23.8931H155.533V23.4716H157.874L168.047 0.48114L178.047 23.3758H180.154V23.8803ZM161.726 15.6867H170.405L166.105 5.89027L161.726 15.6867Z" fill="white"/>
<path d="M153.015 23.8801L134.585 1.5283V23.4714H136.945V23.8929H131.742V23.4714H134.1V1.49637H131.742V0.985474H139.445L152.609 16.8681V1.41335H150.25V0.985474H155.453V1.41335H153.094V23.8801H153.015Z" fill="white"/>
<path d="M128.19 23.8801H119.497V23.4714H121.85V1.49637H119.497V0.985474H128.19V1.41335H125.831V23.3756H128.19V23.8801Z" fill="white"/>
<path d="M83.2919 24.2189C78.7404 24.2189 75.9204 22.1944 74.3541 20.5021C72.3425 18.387 71.2049 15.5385 71.1843 12.564C71.1502 11.0131 71.4211 9.47125 71.9798 8.0328C72.5385 6.59436 73.3733 5.28949 74.434 4.19806C76.8026 1.86987 79.9529 0.595737 83.2124 0.647316H83.3719C86.584 0.559712 89.7033 1.77339 92.0703 4.03202C93.162 5.10613 94.0282 6.40311 94.6148 7.84165C95.2014 9.2802 95.496 10.8292 95.4795 12.3916C95.4914 13.9938 95.1793 15.5806 94.5632 17.0493C93.9472 18.5179 93.0418 19.8357 91.9047 20.9172C89.4953 23.0344 86.4468 24.2031 83.2919 24.2189ZM83.2919 1.07519C78.0094 1.15821 75.3065 5.04105 75.3065 12.5704C75.3065 13.7518 75.3065 16.6257 76.3631 19.0716C77.5915 22.0284 79.9379 23.6377 83.2676 23.7207C86.5969 23.6377 88.9557 22.1114 90.1784 19.0716C90.9461 17 91.3052 14.7892 91.235 12.5704C91.2593 5.04105 88.5749 1.15821 83.2919 1.07519Z" fill="white"/>
<path d="M116.327 23.8801H97.8002V23.4714H100.135V1.49637H97.8002V0.985474H106.659V1.41335H104.201V23.3756H110.639C114.325 23.3756 115.676 17.0405 115.922 13.7452H116.327V23.8801Z" fill="white"/>
<path d="M215.178 23.8801H206.413V23.4714H208.765V12.1422H197.302V23.3756H199.655V23.7971H190.883V23.3756H193.242V1.41335H190.883V0.985474H199.655V1.41335H197.296V11.7144H208.753V1.41335H206.413V0.985474H215.184V1.41335H212.832V23.3756H215.184L215.178 23.8801Z" fill="white"/>
<path d="M237.408 23.8801H218.549V23.4714H220.908V1.49637H218.549V0.985474H237.408V9.18541H236.996C236.916 5.55163 234.724 1.41335 231.634 1.41335H224.876V11.4653H228.046C230.97 11.4653 231.462 9.68993 231.542 6.22856H231.947V17.3789H231.542C231.542 15.3481 231.296 14.0836 230.81 13.3237C230.325 12.5637 229.428 12.0464 228.046 12.0464H224.876V23.5417H231.634C234.705 23.5417 236.671 18.5604 236.916 13.9112H237.322V23.8801H237.408Z" fill="white"/>
<path d="M264.953 23.8801H255.689V23.4714H258.018L252.655 12.0656H248.434V23.4714H250.788V23.8929H242.359V23.4714H244.393V1.49637H242.046V0.985474H254.233C256.832 0.985474 258.62 1.49637 259.676 2.51178C260.733 3.52719 261.304 4.95771 261.304 6.81609C261.304 9.18541 260.407 10.7053 258.54 11.5483C257.602 11.8977 256.612 12.0685 255.616 12.0528H253.502C253.973 12.914 254.643 13.6403 255.45 14.1666C256.391 14.707 257.446 14.9965 258.521 15.0097L262.514 23.4714H264.873V23.8929L264.953 23.8801ZM248.459 11.5483H251.948C253.251 11.5483 255.118 11.2098 256.015 10.5329C256.912 9.85596 257.477 8.42546 257.477 6.47765C257.477 4.52983 257.071 3.09932 256.34 2.39683C255.609 1.69435 253.884 1.2984 252.599 1.2984H248.459V11.5483Z" fill="white"/>
<path d="M289.351 23.8801H280.137V23.4714H282.496L277.133 11.9762H272.907V23.3756H275.223V23.7971H266.782V23.3756H268.815V1.41335H266.457V0.985474H278.644C281.242 0.985474 283.03 1.49637 284.087 2.51178C285.143 3.52719 285.714 4.95771 285.714 6.81609C285.714 9.18541 284.818 10.7053 282.95 11.5483C282.013 11.8983 281.022 12.0693 280.026 12.0528H277.913C278.387 12.9136 279.058 13.6397 279.866 14.1666C280.807 14.7087 281.863 14.9985 282.938 15.0097L286.931 23.4714H289.29V23.8929L289.351 23.8801ZM272.876 11.5483H276.371C277.668 11.5483 279.541 11.2098 280.432 10.5329C281.322 9.85596 281.893 8.42546 281.893 6.47765C281.893 4.52983 281.488 3.09932 280.751 2.39683C280.014 1.69435 278.294 1.2984 277.016 1.2984H272.869V11.5164L272.876 11.5483Z" fill="white"/>
<path d="M339.432 23.8801H330.168V23.4714H332.521L327.158 12.0656H322.932V23.4714H325.291V23.8929H316.838V23.4714H318.871V1.49637H316.512V0.985474H328.7C331.305 0.985474 333.093 1.49637 334.149 2.51178C335.205 3.52719 335.771 4.95771 335.771 6.81609C335.771 9.18541 334.88 10.7053 333.013 11.5483C332.073 11.8981 331.08 12.0691 330.082 12.0528H327.969C328.443 12.9136 329.114 13.6397 329.923 14.1666C330.863 14.7085 331.919 14.9981 332.994 15.0097L336.993 23.4714H339.346V23.8929L339.432 23.8801ZM322.932 11.5483H326.427C327.729 11.5483 329.597 11.2098 330.488 10.5329C331.379 9.85596 331.956 8.42546 331.956 6.47765C331.956 4.52983 331.544 3.09932 330.813 2.39683C329.708 1.63686 328.403 1.253 327.078 1.2984H322.932V11.5164V11.5483Z" fill="white"/>
<path d="M364.458 23.8803H355.6V23.4716H357.958L354.949 16.1913H345.857L342.601 23.4716H345.2V23.8931H340.402V23.4716H342.171L352.43 0.48114L362.443 23.3758H364.556V23.8803H364.458ZM346.029 15.6867H354.727L350.427 5.89027L346.029 15.6867Z" fill="white"/>
<path d="M312.49 23.8801H293.557V23.4714H295.916V1.49637H293.557V0.985474H312.41V9.18541H312.005C311.925 5.55163 309.726 1.41335 306.642 1.41335H299.977V11.4653H303.147C306.071 11.4653 306.562 9.68993 306.642 6.22856H307.047V17.3789H306.642C306.642 15.3481 306.396 14.0836 305.911 13.3237C305.426 12.5637 304.529 12.0464 303.147 12.0464H299.977V23.5417H306.734C309.805 23.5417 311.771 18.5604 312.017 13.9112H312.423V23.8801H312.49Z" fill="white"/>
<path d="M11.7822 24.2189C9.52428 24.267 7.29921 23.6516 5.3628 22.4435C3.74533 21.3945 2.40685 19.9405 1.46994 18.2145C0.53303 16.4885 0.0276196 14.5457 0 12.564V12.3086C0.0352302 10.3068 0.55168 8.346 1.50231 6.60481C2.45293 4.86362 3.80751 3.39738 5.44267 2.33966C7.35106 1.13471 9.54976 0.518961 11.7822 0.564284H12.0279C13.7856 0.585249 15.523 0.958194 17.145 1.66272C17.6743 2.02429 18.2998 2.20308 18.9326 2.17361C19.3605 2.23179 19.7948 2.13709 20.1643 1.90503C20.5337 1.67297 20.8164 1.31732 20.9659 0.896368H21.3713V8.93023H20.9659C20.886 4.95163 17.0651 1.24122 13.0844 1.1582H12.679C10.3201 1.1582 8.45064 1.83302 7.07055 3.18264C5.28294 4.87499 4.30006 7.91484 4.22634 12.1425V12.4746C4.3062 16.8684 5.3628 20.0806 7.29782 22.0221C8.08718 22.7161 9.01047 23.2263 10.0055 23.5182C11.0005 23.8101 12.0441 23.877 13.066 23.7144C15.1578 23.4988 17.1248 22.5795 18.6684 21.096C19.3665 20.4442 19.9289 19.6507 20.3208 18.7643C20.7128 17.878 20.926 16.9176 20.9475 15.9423H21.3529V23.8804H20.9475C20.7749 23.4768 20.4875 23.138 20.1238 22.9096C19.7603 22.6812 19.338 22.5742 18.9141 22.6032C18.2442 22.6042 17.5815 22.7476 16.9668 23.0246C15.3869 23.7839 13.6701 24.1866 11.9296 24.2061L11.7822 24.2189Z" fill="white"/>
<path d="M152.589 1.38348V20.3381" stroke="white" stroke-width="1.7"/>
<path d="M134.086 1.38348V23.5473" stroke="white" stroke-width="1.7"/>
<path d="M166.16 5.8963L158.388 23.497" stroke="white" stroke-width="1.7"/>
<path d="M350.86 5.8963L343.088 23.497" stroke="white" stroke-width="1.7"/>
<path d="M197.268 12.2148H209.002" stroke="white" stroke-width="1.7"/>
<path d="M218.553 1.51297H233.976" stroke="white" stroke-width="1.7"/>
<path d="M293.555 1.51297H308.779" stroke="white" stroke-width="1.7"/>
<path d="M218.553 23.4513H233.976" stroke="white" stroke-width="1.7"/>
<path d="M293.555 23.4513H308.779" stroke="white" stroke-width="1.7"/>
<path d="M242.047 1.51297H255.897" stroke="white" stroke-width="1.7"/>
<path d="M266.457 1.51297C266.457 1.51297 274.951 1.51297 280.146 1.51297" stroke="white" stroke-width="1.7"/>
<path d="M316.508 1.51297H330.19" stroke="white" stroke-width="1.7"/>
<path d="M33.0451 5.84641L25.0721 23.5976" stroke="white" stroke-width="1.7"/>
<path d="M48.3914 1.51297H62.4265" stroke="white" stroke-width="1.7"/>
<path d="M97.8043 23.3983H112.375" stroke="white" stroke-width="1.7"/>
<path d="M22.3489 23.3893H27.7119" stroke="white" stroke-width="0.8"/>
<path d="M155.537 23.3893H160.9" stroke="white" stroke-width="0.8"/>
<path d="M190.885 23.3893H199.649" stroke="white" stroke-width="0.8"/>
<path d="M206.415 23.3893H215.179" stroke="white" stroke-width="0.8"/>
<path d="M190.885 1.47519H199.649" stroke="white" stroke-width="0.8"/>
<path d="M206.415 1.47519H215.179" stroke="white" stroke-width="0.8"/>
<path d="M340.403 23.3893H345.198" stroke="white" stroke-width="0.8"/>
<path d="M38.083 23.3893H47.051" stroke="white" stroke-width="0.8"/>
<path d="M171.307 23.3893H180.151" stroke="white" stroke-width="0.8"/>
<path d="M355.604 23.3893H364.554" stroke="white" stroke-width="0.8"/>
<path d="M48.7113 23.3893H57.1642" stroke="white" stroke-width="0.8"/>
<path d="M62.0391 23.3893H71.3267" stroke="white" stroke-width="0.8"/>
<path d="M53.2839 11.4647H62.5716" stroke="white" stroke-width="0.8"/>
<path d="M28.7601 15.6021H37.3552" stroke="white" stroke-width="0.8"/>
<path d="M161.984 15.6021H170.579" stroke="white" stroke-width="0.8"/>
<path d="M346.361 15.6021H354.956" stroke="white" stroke-width="0.8"/>
<path d="M7.48083 2.54482C9.12792 1.53703 14.4665 0.0360364 18.0572 2.8028" stroke="white" stroke-width="0.8"/>
<path d="M17.0254 22.6658C15.3784 23.6736 10.5557 24.917 6.96497 22.1502" stroke="white" stroke-width="0.8"/>
<path d="M242.358 23.3893H250.784" stroke="white" stroke-width="0.8"/>
<path d="M266.785 23.3893H275.22" stroke="white" stroke-width="0.8"/>
<path d="M316.837 23.3893H325.29" stroke="white" stroke-width="0.8"/>
<path d="M255.686 23.3893H264.867" stroke="white" stroke-width="0.8"/>
<path d="M280.139 23.3893H289.294" stroke="white" stroke-width="0.8"/>
<path d="M330.165 23.3893H339.346" stroke="white" stroke-width="0.8"/>
<path d="M246.931 11.4647H256.219" stroke="white" stroke-width="0.8"/>
<path d="M271.358 11.4647H280.645" stroke="white" stroke-width="0.8"/>
<path d="M321.41 11.4647H330.698" stroke="white" stroke-width="0.8"/>
<path d="M97.8043 1.50189H106.657" stroke="white" stroke-width="0.8"/>
<path d="M119.496 1.50189H128.189" stroke="white" stroke-width="0.8"/>
<path d="M119.496 23.3893H128.189" stroke="white" stroke-width="0.8"/>
<path d="M131.741 23.3893H136.944" stroke="white" stroke-width="0.8"/>
<path d="M131.741 1.50189H136.944" stroke="white" stroke-width="0.8"/>
<path d="M150.254 1.50189H155.457" stroke="white" stroke-width="0.8"/>
</g>
<defs>
<clipPath id="clip0_7_78">
<rect width="364.757" height="24.2483" fill="white" transform="translate(0 0.48114)"/>
</clipPath>
</defs>
</svg>
